<?xml version="1.0" standalone="no"?>
<!DOCTYPE svg PUBLIC "-//W3C//DTD SVG 20010904//EN"
 "http://www.w3.org/TR/2001/REC-SVG-20010904/DTD/svg10.dtd">
<svg version="1.0" xmlns="http://www.w3.org/2000/svg"
 width="300.000000pt" height="225.000000pt" viewBox="0 0 300.000000 225.000000"
 preserveAspectRatio="xMidYMid meet">
<metadata>
Created by potrace 1.10, written by Peter Selinger 2001-2011
</metadata>
<g transform="translate(0.000000,225.000000) scale(0.100000,-0.100000)"
fill="#000000" stroke="none">
<path d="M1350 1695 c-199 -56 -345 -190 -406 -375 -13 -38 -18 -84 -18 -151
0 -151 45 -257 157 -376 39 -40 40 -45 43 -117 3 -98 9 -116 40 -116 14 0 61
19 104 41 79 42 80 42 142 32 246 -40 508 89 616 302 49 99 66 245 41 355 -29
129 -143 280 -253 338 -114 60 -164 73 -291 78 -88 3 -135 0 -175 -11z m302
-31 c170 -41 320 -175 379 -340 30 -83 30 -225 0 -308 -58 -163 -197 -289
-377 -342 -64 -18 -226 -22 -279 -7 -26 8 -42 2 -124 -44 -51 -29 -94 -53 -95
-53 -1 0 0 42 2 94 l4 94 -59 59 c-68 68 -125 171 -144 260 -36 177 43 374
196 490 143 108 315 141 497 97z"/>
<path d="M1292 1150 c-85 -88 -151 -160 -149 -160 3 0 38 19 79 43 40 24 101
58 134 76 l61 32 58 -60 c31 -33 62 -67 68 -76 10 -13 35 9 165 145 85 88 151
160 147 160 -3 0 -64 -33 -135 -74 l-129 -74 -73 74 -73 75 -153 -161z m200
73 c51 -57 89 -84 110 -78 10 3 27 8 39 11 19 5 20 4 8 -17 -16 -30 -78 -89
-95 -89 -7 0 -25 15 -40 33 -61 72 -95 85 -159 61 -20 -8 -20 -8 -1 21 21 32
85 95 97 95 4 0 22 -17 41 -37z"/>
</g>
</svg>
